<svg viewBox="0 0 128 128" fill="none" xmlns="http://www.w3.org/2000/svg" stroke-linejoin="round" stroke-linecap="round" stroke-width="3"><path d="M126.5 71.8c0 17.3-7.4 30.9-19.2 40.2-11.8 9.3-28.0 14.4-45.5 14.4C27.0 126.5 1.5 98.4 1.5 63.5c0-34.7 26.0-61.1 60.2-62.0C95.8.6 126.5 28.4 126.5 71.8z" fill="#E9C718" stroke="#000"/><ellipse cx="19.3" cy="89.3" rx="8.2" ry="5.5" fill="#E9AE18"/><ellipse cx="109.5" cy="86.5" rx="8.2" ry="6.4" fill="#EA1"/><path d="M42.3 92.0c-5.9.3-10.7-.497-15.6-3.6-11.8-7.6-11.1-20.5-3.6-31.3C39.7 33.2 73.6 52.5 63.5 82.8c0 0-2.7 2.7-8.2 5.5S42.3 92.0 42.3 92.0z" fill="#fff"/><path d="M63.5 82.8C73.6 52.5 39.7 33.2 23.0 57.1c-7.5 10.7-8.1 23.6 3.6 31.3 4.9 3.1 9.6 4.0 15.6 3.6" stroke="#000"/><path d="M77.3 79.2c-.92-8.5 2.3-22.4 6.4-28.5 8.9-13.3 19.7-7.2 24.8 6.4 4.5 12.1 2.7 31.7-12.8 33.9 0 0-6.4.1-12.0-3.5-5.5-3.6-6.4-8.2-6.4-8.2z" fill="#fff"/><path d="M95.8 91.0c15.6-2.1 17.3-21.7 12.8-33.9-5.1-13.6-15.8-19.7-24.8-6.4-4.0 6.0-7.3 20.0-6.4 28.5" stroke="#000"/><path d="M52.4 70.9c0-6.4.9-8.2.9-8.2s1.8 4.6 1.8 8.2c0 3.6-.921 8.2-.921 8.2s-1.8-1.8-1.8-8.2zM85.6 68.1c0 6.4 1.8 6.4 1.8 6.4s1.8-1.8 1.8-6.4c0-3.6-1.8-6.4-1.8-6.4s-1.8 0-1.8 6.4z" fill="#000" stroke="#000"/><path transform="rotate(-137.7 38.1 11.1) skewX(-.01)" stroke="#000" d="M1.5-1.5h24.3"/><path transform="rotate(116.5 36.5 39.7) skewX(.008)" stroke="#000" d="M1.5-1.5h21.7"/><path d="M50.6 98.5s7.3 11.9 13.8 11.9c6.4 0 12.8-13.8 12.8-13.8" stroke="#000"/></svg>