<svg width="96" height="48" viewBox="0 0 96 48" fill="#fff" xmlns="http://www.w3.org/2000/svg">
<path d="M68 9C69 9 69 10 69 10C70 11 71 12 71 12C71 12 71 13 71 13C71 13 70 12 70 12C70 12 69 12 69 12C70 13 70 13 70 13C70 13 70 13 70 13C70 13 71 14 71 14C71 14 71 15 71 15C71 15 70 14 69 14C69 14 69 14 69 14C69 14 68 14 68 14C68 14 67 13 66 13C65 12 64 12 63 11C52 8 41 8 30 12C28 13 28 13 28 13C24 19 25 28 25 34C25 36 25 36 25 36C25 36 24 36 24 35C24 35 24 35 24 35C24 35 23 35 23 35C23 35 23 36 23 36C22 36 21 33 20 31C19 28 18 24 18 20C18 19 18 19 17 19C15 22 12 24 10 26C9 28 8 29 8 30C8 30 8 30 8 30C8 31 8 32 9 33C10 36 10 36 10 36C10 36 10 36 9 35C9 35 9 35 9 35C10 38 10 38 10 38C10 38 10 38 9 37C9 37 9 37 8 37C8 37 8 37 8 37C8 37 7 37 7 36C4 35 1 32 0 30C-0 30 -0 29 1 27C1 27 1 26 1 26C1 25 2 25 2 25C6 17 12 11 20 6C26 3 32 1 39 0C40 0 45 -0 47 0C55 0 62 3 68 9Z" fill="white"/>
<path d="M34 44C34 44 34 44 34 44C34 44 34 44 35 44C35 44 35 45 35 45C35 45 35 45 35 45L35 45C35 45 35 45 35 45C35 45 35 45 35 45C35 45 35 45 35 45C34 45 34 45 34 46C34 46 34 46 34 46L34 46C34 46 34 46 34 46C34 46 34 46 34 46C33 46 33 46 32 46C32 46 32 46 32 46C32 46 32 46 32 46C32 46 32 46 32 46C32 46 32 46 32 46C32 46 32 47 33 47C33 47 34 47 35 47C35 47 35 47 35 47C35 47 35 47 35 47C35 47 35 47 35 47C35 47 35 47 35 47C36 48 44 47 48 47C60 46 72 44 84 40C90 38 96 36 95 30C95 30 94 28 92 27C91 26 91 25 90 24C89 23 87 22 85 21C84 21 83 20 83 20C83 20 83 21 83 21C84 22 83 22 83 22C82 22 82 23 82 23C82 23 82 23 82 23C81 23 82 24 85 28C86 29 86 29 86 30C87 30 87 30 86 30C82 32 76 34 67 36C66 36 66 36 65 36C65 36 65 36 65 36C65 36 65 36 65 35C65 30 65 24 62 20C62 18 61 17 60 17C60 17 60 17 60 17C60 17 59 16 59 16C59 16 59 17 59 18C59 19 58 18 58 18C58 18 58 19 58 23C58 30 58 34 57 37C57 37 57 38 57 38C57 38 56 38 56 38C55 39 51 40 44 41L43 41C34 43 34 44 34 44C34 44 34 44 34 44C34 44 34 44 34 44C34 44 34 44 34 44Z" fill="white"/>
</svg>
